<svg id="svg" xmlns="http://www.w3.org/2000/svg" xmlns:xlink="http://www.w3.org/1999/xlink" width="400" height="400" viewBox="0, 0, 400,400"><g id="svgg"><path id="path0" d="M135.773 1.065 C 133.913 2.478,132.813 5.732,132.813 9.816 L 132.813 13.281 81.605 13.281 L 30.398 13.281 28.480 15.199 L 26.562 17.116 26.562 108.558 L 26.563 200.000 14.980 200.000 C -1.002 200.000,0.000 198.660,0.000 220.031 L -0.000 236.446 2.016 238.340 L 4.032 240.234 68.406 240.443 L 132.780 240.652 132.991 291.748 L 133.203 342.844 135.097 344.859 L 136.991 346.875 153.297 346.875 C 172.770 346.875,173.438 346.606,173.438 338.750 C 173.438 334.490,173.467 334.437,177.789 330.916 C 198.722 313.864,229.424 318.379,244.611 340.743 C 248.934 347.108,247.842 346.875,273.322 346.875 C 299.398 346.875,297.617 347.217,301.524 341.462 C 319.876 314.439,357.779 313.491,377.068 339.575 C 382.235 346.561,382.801 346.875,390.219 346.875 C 395.490 346.875,396.382 346.657,398.082 344.957 L 400.000 343.040 400.000 179.859 L 400.000 16.679 398.143 14.934 L 396.287 13.190 344.042 13.484 L 291.797 13.778 282.202 15.884 C 235.686 26.095,199.047 53.520,176.957 94.665 L 173.464 101.172 173.451 52.644 C 173.438 4.743,173.417 4.090,171.818 2.058 L 170.199 0.000 153.654 0.025 C 141.319 0.043,136.769 0.308,135.773 1.065 M159.375 143.633 C 159.375 236.448,159.621 273.909,160.241 275.688 C 162.016 280.781,154.473 280.469,275.742 280.469 L 385.938 280.469 385.937 303.856 L 385.937 327.242 381.985 323.393 C 357.894 299.927,321.110 300.705,296.707 325.195 L 289.117 332.812 272.879 332.807 L 256.641 332.802 254.773 330.060 C 242.474 312.000,212.966 301.848,191.406 308.259 C 176.858 312.584,162.172 322.651,160.043 329.756 L 159.128 332.813 153.001 332.813 L 146.875 332.813 146.875 173.438 L 146.875 14.063 153.125 14.063 L 159.375 14.063 159.375 143.633 M66.406 48.473 L 66.406 69.602 68.324 71.520 C 71.052 74.248,74.669 74.017,81.270 70.693 L 86.719 67.949 92.168 70.693 C 105.680 77.498,107.031 75.407,107.031 47.695 L 107.031 27.344 119.922 27.344 L 132.813 27.344 132.813 66.797 L 132.813 106.250 86.719 106.250 L 40.625 106.250 40.625 66.797 L 40.625 27.344 53.516 27.344 L 66.406 27.344 66.406 48.473 M92.969 41.068 L 92.969 54.793 91.211 54.158 C 88.977 53.353,83.621 53.386,81.836 54.218 C 80.562 54.811,80.469 53.921,80.469 41.099 L 80.469 27.344 86.719 27.344 L 92.969 27.344 92.969 41.068 M359.375 105.859 C 359.375 149.043,359.078 184.375,358.716 184.375 C 358.354 184.375,356.112 183.706,353.734 182.888 C 342.911 179.164,330.520 178.755,316.725 181.667 L 314.308 182.177 313.839 172.925 C 313.100 158.368,309.714 150.055,301.524 142.692 L 297.745 139.294 302.251 134.660 C 326.686 109.534,308.620 66.342,273.708 66.418 C 236.846 66.497,219.234 110.645,245.913 136.092 C 248.377 138.442,250.920 140.553,251.564 140.783 C 255.389 142.148,248.454 145.902,241.493 146.235 C 233.402 146.621,227.730 149.256,223.828 154.441 L 221.484 157.555 205.592 152.215 C 196.852 149.278,189.410 146.875,189.055 146.875 C 188.320 146.875,184.024 159.284,184.570 159.830 C 184.766 160.026,187.758 161.146,191.220 162.320 L 197.515 164.453 186.251 196.484 C 180.056 214.102,174.640 229.219,174.216 230.078 C 172.782 232.980,173.832 153.282,175.343 144.531 C 185.819 83.868,230.371 39.176,290.625 28.890 C 297.479 27.720,303.808 27.478,329.102 27.417 L 359.375 27.344 359.375 105.859 M385.938 116.024 L 385.938 204.703 379.688 198.578 L 373.438 192.453 373.438 109.898 L 373.438 27.344 379.688 27.344 L 385.938 27.344 385.938 116.024 M279.987 81.408 C 298.757 86.890,305.508 109.672,292.614 124.014 C 280.426 137.570,258.440 134.627,250.067 118.320 C 240.021 98.753,259.040 75.290,279.987 81.408 M66.406 141.301 C 66.406 168.758,67.471 170.505,80.488 164.396 L 86.719 161.472 92.949 164.396 C 105.783 170.419,106.576 169.127,106.871 141.716 L 107.102 120.313 119.957 120.313 L 132.813 120.313 132.813 160.156 L 132.813 200.000 86.719 200.000 L 40.625 200.000 40.625 160.156 L 40.625 120.313 53.516 120.313 L 66.406 120.313 66.406 141.301 M92.969 134.284 L 92.969 148.255 89.844 147.178 C 87.189 146.263,86.249 146.263,83.594 147.178 L 80.469 148.255 80.469 134.284 L 80.469 120.313 86.719 120.313 L 92.969 120.313 92.969 134.284 M285.938 149.321 C 295.841 153.646,299.291 160.542,299.755 176.945 L 300.087 188.672 295.675 191.406 C 289.426 195.279,279.693 205.714,275.339 213.207 L 271.664 219.531 262.785 219.531 L 253.906 219.531 253.906 203.125 L 253.906 186.719 262.695 186.711 C 278.219 186.698,286.650 179.873,286.702 167.278 C 286.732 159.704,281.624 150.435,276.527 148.817 C 275.687 148.550,275.000 147.964,275.000 147.515 C 275.000 146.347,281.636 147.442,285.938 149.321 M268.440 160.968 C 272.801 162.626,274.056 167.550,270.958 170.848 C 269.262 172.653,241.255 173.749,237.144 172.171 C 232.290 170.308,233.398 162.003,238.672 160.718 C 241.773 159.963,266.338 160.169,268.440 160.968 M221.503 175.042 C 224.329 181.309,231.585 186.663,237.305 186.702 L 239.844 186.719 239.844 202.985 L 239.844 219.251 233.835 220.185 C 214.755 223.152,200.944 238.616,200.150 257.903 L 199.799 266.406 188.216 266.406 L 176.632 266.406 177.821 263.086 C 179.600 258.121,208.613 175.901,209.914 172.138 L 211.038 168.886 215.573 170.418 C 219.524 171.752,220.289 172.349,221.503 175.042 M344.141 194.918 C 370.403 200.398,385.204 220.322,385.786 250.977 L 386.079 266.406 333.191 266.406 L 280.303 266.406 280.660 251.367 C 281.049 234.992,281.830 231.244,286.812 221.843 C 297.608 201.472,321.584 190.212,344.141 194.918 M132.813 220.313 L 132.813 226.563 73.438 226.563 L 14.063 226.563 14.063 220.313 L 14.063 214.063 73.438 214.063 L 132.813 214.063 132.813 220.313 M266.903 237.218 C 266.630 239.212,266.406 246.595,266.406 253.625 L 266.406 266.406 240.157 266.406 L 213.907 266.406 214.189 259.570 C 214.972 240.601,225.090 233.784,252.645 233.660 L 267.400 233.594 266.903 237.218 M200.559 333.625 C 178.205 337.383,166.029 363.975,177.623 383.717 C 190.944 406.400,225.244 405.196,236.755 381.641 C 248.858 356.873,227.871 329.033,200.559 333.625 M335.938 333.328 C 293.234 339.945,298.776 401.627,341.917 399.881 C 370.888 398.709,384.150 363.744,363.572 342.789 C 356.670 335.760,345.320 331.874,335.938 333.328 M215.511 349.459 C 226.985 355.126,229.454 371.207,220.261 380.400 C 208.187 392.474,187.388 383.794,187.388 366.680 C 187.388 352.183,202.405 342.987,215.511 349.459 M348.022 349.127 C 362.331 355.457,363.256 374.669,349.674 383.460 C 344.759 386.641,335.423 386.507,330.033 383.178 C 309.446 370.461,325.890 339.337,348.022 349.127 " stroke="none" fill="#fff" fill-rule="evenodd"></path></g></svg>