<svg id="svg" xmlns="http://www.w3.org/2000/svg" xmlns:xlink="http://www.w3.org/1999/xlink" width="400" height="400" viewBox="0, 0, 400,400"><g id="svgg"><path id="path0" d="M113.672 54.553 C 52.438 87.653,28.245 101.106,27.551 102.441 C 26.800 103.884,26.586 125.569,26.586 200.000 C 26.586 274.433,26.800 296.115,27.551 297.556 C 28.486 299.352,41.452 306.481,165.798 373.578 C 191.016 387.185,199.608 391.474,200.954 391.124 C 205.454 389.955,371.521 299.358,372.449 297.565 C 373.856 294.850,373.856 105.149,372.449 102.436 C 371.538 100.679,351.950 89.915,225.531 21.707 C 212.717 14.794,201.467 8.998,200.531 8.829 C 199.384 8.621,171.007 23.560,113.672 54.553 M225.909 33.355 C 239.995 40.957,251.442 47.241,251.346 47.319 C 249.413 48.885,94.175 132.059,93.504 131.887 C 92.051 131.515,43.781 105.370,43.396 104.746 C 43.124 104.307,198.787 19.593,199.953 19.545 C 200.143 19.538,211.823 25.752,225.909 33.355 M278.943 62.020 L 295.392 70.915 290.470 73.640 C 268.723 85.679,138.502 155.729,137.868 155.729 C 137.422 155.729,129.752 151.766,120.823 146.921 L 104.588 138.113 137.255 120.463 C 155.222 110.755,190.488 91.658,215.625 78.025 C 240.762 64.392,261.590 53.212,261.911 53.181 C 262.232 53.150,269.896 57.128,278.943 62.020 M331.842 90.658 C 351.317 101.146,356.820 104.433,356.061 105.127 C 355.520 105.620,320.195 124.855,277.560 147.871 L 200.041 189.718 174.827 176.115 C 160.959 168.633,149.536 162.245,149.441 161.920 C 149.267 161.319,305.533 76.613,306.250 76.920 C 306.465 77.012,317.981 83.194,331.842 90.658 M63.591 127.344 L 89.009 141.016 89.036 178.320 C 89.069 224.567,87.693 221.203,104.297 215.625 C 109.413 213.906,113.691 212.500,113.804 212.500 C 113.918 212.500,117.415 217.334,121.576 223.242 C 135.095 242.438,134.881 242.188,137.820 242.188 C 142.651 242.188,142.540 242.988,142.969 205.072 L 143.359 170.539 169.336 184.573 L 195.312 198.607 195.312 288.392 L 195.312 378.178 189.953 375.222 C 187.005 373.596,151.337 354.336,110.690 332.422 L 36.787 292.578 36.753 202.865 C 36.732 147.874,37.000 113.252,37.445 113.411 C 37.845 113.555,49.610 119.824,63.591 127.344 M363.249 202.930 L 363.217 292.578 290.398 331.856 C 250.347 353.458,214.678 372.711,211.133 374.639 L 204.688 378.144 204.688 288.401 L 204.688 198.657 283.398 156.031 C 326.689 132.587,362.373 113.378,362.695 113.344 C 363.018 113.309,363.267 153.623,363.249 202.930 M123.633 159.929 L 132.813 164.953 132.813 193.216 L 132.813 221.479 130.013 217.576 C 128.474 215.429,125.438 211.118,123.267 207.996 C 118.282 200.828,117.501 200.615,107.827 203.786 C 103.693 205.141,100.065 206.250,99.765 206.250 C 99.464 206.250,99.219 192.860,99.219 176.495 L 99.219 146.740 106.836 150.822 C 111.025 153.068,118.584 157.166,123.633 159.929 M47.049 265.279 C 44.446 267.102,44.664 271.321,47.461 273.251 C 52.366 276.636,108.356 306.250,109.851 306.250 C 112.145 306.250,114.063 303.826,114.063 300.926 C 114.063 297.807,114.784 298.266,82.813 281.054 C 46.951 261.748,50.103 263.139,47.049 265.279 M46.605 281.116 C 42.664 285.471,44.119 287.180,58.287 294.830 C 69.806 301.050,72.971 301.893,75.270 299.353 C 78.745 295.512,76.791 293.340,63.294 286.047 C 51.020 279.414,48.752 278.744,46.605 281.116 " stroke="none" fill="#fff" fill-rule="evenodd"></path></g></svg>