<svg id="svg" xmlns="http://www.w3.org/2000/svg" xmlns:xlink="http://www.w3.org/1999/xlink" width="400" height="400" viewBox="0, 0, 400,400"><g id="svgg"><path id="path0" d="M217.500 49.553 C 213.897 51.121,214.063 46.120,214.063 153.580 L 214.063 253.906 189.457 253.906 L 164.852 253.906 157.844 239.908 C 148.775 221.789,152.147 223.438,124.150 223.438 C 97.536 223.438,96.875 223.589,96.875 229.688 C 96.875 235.684,97.871 235.938,121.410 235.938 L 141.828 235.937 146.300 244.922 L 150.773 253.906 101.949 253.906 C 75.096 253.906,53.125 253.725,53.125 253.503 C 53.125 253.281,55.062 249.238,57.428 244.518 L 61.732 235.938 71.542 235.938 C 84.237 235.937,87.784 233.688,85.144 227.314 C 83.660 223.731,82.404 223.437,68.585 223.437 C 52.760 223.438,54.398 222.268,45.720 239.764 L 38.707 253.906 25.757 253.906 C 2.989 253.906,0.522 256.347,0.146 279.237 C -0.151 297.255,-0.013 298.096,3.979 302.631 C 7.365 306.478,12.339 308.594,17.998 308.594 L 20.869 308.594 22.152 313.867 C 31.952 354.142,87.408 364.702,109.370 330.476 L 111.897 326.538 114.014 329.871 C 136.182 364.766,194.104 353.832,201.807 313.297 L 202.701 308.594 238.353 308.594 L 274.005 308.594 275.039 313.477 C 283.630 354.049,342.316 364.729,363.122 329.506 L 364.399 327.344 377.266 327.344 C 399.575 327.344,400.000 326.834,400.000 300.064 C 400.000 279.705,399.766 278.335,395.743 275.171 L 393.799 273.641 393.579 228.032 L 393.359 182.422 391.221 177.856 C 389.888 175.012,386.952 171.095,383.432 167.464 L 377.783 161.638 373.724 120.212 C 369.086 72.879,370.524 77.940,359.832 71.326 C 338.682 58.243,329.688 56.648,329.688 65.981 C 329.688 69.284,330.728 70.133,341.420 75.562 C 350.751 80.298,357.812 84.751,357.813 85.898 C 357.813 86.264,359.570 104.422,361.719 126.250 C 363.867 148.077,365.625 166.236,365.625 166.603 C 365.625 166.970,368.766 170.568,372.605 174.597 C 380.862 183.265,381.240 184.258,381.246 197.337 L 381.250 206.784 378.320 207.693 C 364.457 211.997,360.938 220.690,360.938 250.627 L 360.937 272.064 355.502 266.937 C 327.894 240.893,282.115 255.955,274.602 293.555 L 274.095 296.094 250.329 296.094 L 226.563 296.094 226.563 178.430 L 226.563 60.767 260.742 61.139 C 291.821 61.477,295.831 61.672,304.942 63.285 L 314.963 65.060 317.052 63.507 C 323.273 58.880,319.444 53.205,308.786 51.255 C 292.873 48.343,223.260 47.045,217.500 49.553 M244.833 99.441 C 239.370 104.448,239.542 105.273,252.725 137.277 C 259.805 154.466,265.020 166.067,266.263 167.395 C 270.407 171.824,277.307 171.710,281.685 167.141 L 283.984 164.741 283.984 133.482 L 283.984 102.224 281.066 99.549 L 278.148 96.875 262.891 96.875 L 247.633 96.875 244.833 99.441 M294.432 98.190 C 289.841 101.040,289.844 101.017,289.844 133.594 C 289.844 173.830,287.367 170.585,318.359 170.955 C 357.456 171.422,355.559 173.715,351.293 131.156 C 348.395 102.237,347.934 100.211,343.776 98.060 C 340.249 96.237,297.398 96.350,294.432 98.190 M271.875 129.036 C 271.875 140.280,271.733 149.333,271.560 149.154 C 271.263 148.846,259.343 120.286,256.181 112.305 L 254.710 108.594 263.293 108.594 L 271.875 108.594 271.875 129.036 M338.594 131.055 C 339.768 143.408,340.921 154.658,341.155 156.055 L 341.580 158.594 321.962 158.594 L 302.344 158.594 302.344 133.594 L 302.344 108.594 319.401 108.594 L 336.458 108.594 338.594 131.055 M294.246 182.088 C 291.496 184.251,291.372 188.806,293.996 191.270 C 295.988 193.142,315.583 193.882,318.719 192.204 C 322.248 190.315,322.193 184.219,318.625 181.719 C 315.650 179.636,297.005 179.918,294.246 182.088 M381.250 246.094 L 381.250 271.875 377.344 271.875 L 373.438 271.875 373.438 251.028 C 373.438 231.487,373.540 229.970,375.068 226.812 C 376.411 224.039,379.791 220.313,380.965 220.313 C 381.122 220.313,381.250 231.914,381.250 246.094 M33.997 268.945 C 28.986 275.141,28.108 276.435,25.917 280.859 C 23.806 285.122,22.973 287.619,21.548 293.945 C 20.948 296.609,16.871 296.961,13.954 294.602 C 12.228 293.206,12.092 292.496,11.846 283.562 C 11.371 266.312,11.296 266.406,25.503 266.406 L 36.051 266.406 33.997 268.945 M77.256 267.235 C 105.032 273.638,114.817 308.337,94.464 328.252 C 70.813 351.396,32.138 333.489,33.732 300.134 C 34.765 278.531,56.148 262.368,77.256 267.235 M119.001 268.945 C 117.682 270.342,115.534 272.988,114.229 274.827 L 111.857 278.169 110.104 275.608 C 109.140 274.199,106.926 271.553,105.185 269.727 L 102.018 266.406 111.709 266.406 L 121.400 266.406 119.001 268.945 M162.993 267.492 C 190.131 274.718,199.480 307.917,179.963 327.749 C 159.342 348.702,123.964 337.291,118.729 307.997 C 114.366 283.582,138.946 261.089,162.993 267.492 M214.063 281.250 L 214.063 296.094 208.398 296.088 L 202.734 296.083 201.376 290.424 C 199.601 283.027,196.065 276.156,191.256 270.761 L 187.375 266.406 200.719 266.406 L 214.063 266.406 214.063 281.250 M330.859 267.478 C 360.972 275.593,368.365 314.772,343.048 332.068 C 312.440 352.978,274.440 320.439,290.252 286.858 C 297.363 271.755,315.179 263.252,330.859 267.478 M59.654 278.189 C 46.211 283.359,39.427 300.203,45.474 313.397 C 57.143 338.855,95.464 330.549,95.447 302.566 C 95.436 283.909,77.154 271.459,59.654 278.189 M146.875 277.249 C 119.477 286.237,123.642 326.096,152.250 328.690 C 180.678 331.267,191.577 291.212,165.810 278.857 C 161.823 276.945,150.684 275.999,146.875 277.249 M313.971 277.604 C 285.988 287.971,292.935 328.627,322.656 328.440 C 350.175 328.266,358.676 291.004,333.964 278.869 C 329.271 276.565,318.599 275.889,313.971 277.604 M387.891 299.609 L 387.891 314.453 378.811 314.672 L 369.732 314.892 370.379 311.547 C 371.736 304.528,370.726 291.768,368.333 285.718 C 367.820 284.421,368.463 284.342,377.837 284.546 L 387.891 284.766 387.891 299.609 M77.548 291.602 C 84.777 297.115,84.803 307.251,77.604 313.185 C 65.338 323.296,48.726 306.084,58.984 293.893 C 63.464 288.569,72.163 287.495,77.548 291.602 M161.268 290.939 C 170.873 296.568,169.877 310.452,159.540 315.024 C 146.744 320.684,134.585 304.114,143.997 293.841 C 148.741 288.664,155.460 287.535,161.268 290.939 M329.281 290.849 C 336.523 294.951,338.189 305.491,332.565 311.626 C 320.521 324.766,300.854 307.269,312.333 293.627 C 316.355 288.847,323.638 287.653,329.281 290.849 " stroke="none" fill="#fff" fill-rule="evenodd"></path></g></svg>